<svg width="1440" height="402" viewBox="0 0 1440 402" fill="none" xmlns="http://www.w3.org/2000/svg">
<path d="M42.7145 402C33.4076 402 25.2814 401.513 18.336 400.54C11.2516 399.705 5.13963 398.732 0 397.619V333.574C4.44509 334.409 9.16799 335.313 14.1687 336.286C19.1694 337.399 24.5869 337.955 30.4211 337.955C40.2836 337.955 47.9236 335.939 53.341 331.906C58.8974 327.872 62.7869 321.823 65.0094 313.756C67.2319 305.69 68.3432 295.607 68.3432 283.507V1.25169H151.064V276.414C151.064 307.011 146.48 331.488 137.312 349.846C128.144 368.204 115.433 381.486 99.181 389.692C82.9287 397.897 64.1065 402 42.7145 402Z" fill="#181818"/>
<path d="M397.974 306.246H217.115V1.25169H397.974V67.3825H299.418V115.364H390.682V181.495H299.418V239.072H397.974V306.246Z" fill="#181818"/>
<path d="M741.357 306.246H633.425L522.159 91.3731H520.284C520.978 97.9097 521.603 105.768 522.159 114.947C522.715 124.126 523.201 133.513 523.617 143.109C524.034 152.567 524.242 161.12 524.242 168.769V306.246H451.315V1.25169H558.831L669.68 213.204H670.93C670.514 206.528 670.097 198.81 669.68 190.048C669.263 181.147 668.847 172.176 668.43 163.136C668.152 154.097 668.013 146.1 668.013 139.146V1.25169H741.357V306.246Z" fill="#181818"/>
<path d="M1097.24 306.246H989.31L878.044 91.3731H876.168C876.863 97.9097 877.488 105.768 878.044 114.947C878.599 124.126 879.085 133.513 879.502 143.109C879.919 152.567 880.127 161.12 880.127 168.769V306.246H807.2V1.25169H914.716L1025.57 213.204H1026.82C1026.4 206.528 1025.98 198.81 1025.57 190.048C1025.15 181.147 1024.73 172.176 1024.31 163.136C1024.04 154.097 1023.9 146.1 1023.9 139.146V1.25169H1097.24V306.246Z" fill="#181818"/>
<path d="M1349.99 306.246L1334.98 249.086H1236.01L1220.59 306.246H1130.16L1229.55 0H1339.36L1440 306.246H1349.99ZM1317.9 181.495L1304.77 131.427C1303.38 126.003 1301.37 118.284 1298.73 108.271C1296.09 98.1183 1293.45 87.6876 1290.81 76.9787C1288.31 66.1308 1286.37 57.2299 1284.98 50.2761C1283.73 57.2299 1281.92 65.8526 1279.56 76.1443C1277.34 86.2968 1274.98 96.3799 1272.48 106.393C1270.11 116.407 1268.03 124.751 1266.22 131.427L1253.1 181.495H1317.9Z" fill="#181818"/>
</svg>
